{"title":"Formula1 2011 Ro01 Australia Free Practice 3 XviD","uid":6271711,"size":707137732,"categoryP":"video","categoryS":"movies","magnet":"?xt=urn:btih:2260e44061104138af2a82c9100811c9e9910eaf&amp;dn=Formula1+2011+Ro01+Australia+Free+Practice+3+XviD&amp;tr=udp%3A%2F%2Ftracker.openbittorrent.com%3A80&amp;tr=udp%3A%2F%2Fopen.demonii.com%3A1337&amp;tr=udp%3A%2F%2Ftracker.coppersurfer.tk%3A6969&amp;tr=udp%3A%2F%2Fexodus.desync.com%3A6969","seeders":0,"leechers":0,"uploader":"SAFCukO09","files":2,"time":1301126866,"description":"\n\nFormula1 2011 Ro01 Australia Free Practice 3 XviD.avi\n\n\nVideo\nID : 0\nFormat : MPEG-4 Visual\nFormat profile : Advanced Simple@L5\nFormat settings, BVOP : Yes\nFormat settings, QPel : No\nFormat settings, GMC : No warppoints\nFormat settings, Matrix : Default (H.263)\nMuxing mode : Packed bitstream\nCodec ID : XVID\nCodec ID/Hint : XviD\nDuration : 1h 10mn\nBit rate : 1 204 Kbps\nWidth : 608 pixels\nHeight : 336 pixels\nDisplay aspect ratio : 16:9\nFrame rate : 25.000 fps\nResolution : 8 bits\nColorimetry : 4:2:0\nScan type : Progressive\nBits/(Pixel*Frame) : 0.236\nStream size : 605 MiB (90%)\nWriting library : XviD 1.1.2 (UTC 2006-11-01)\n\nAudio\nID : 1\nFormat : MPEG Audio\nFormat version : Version 1\nFormat profile : Layer 3\nFormat_Settings_Mode : Joint stereo\nFormat_Settings_ModeExtension : MS Stereo\nCodec ID : 55\nCodec ID/Hint : MP3\nDuration : 1h 10mn\nBit rate mode : Constant\nBit rate : 128 Kbps\nChannel(s) : 2 channels\nSampling rate : 48.0 KHz\nStream size : 64.3 MiB (10%)\nAlignment : Aligned on interleaves\nInterleave, duration : 40 ms (1.00 video frame)\nInterleave, preload duration : 504 ms ","torrent":{"xt":"urn:btih:2260e44061104138af2a82c9100811c9e9910eaf","amp;dn":"Formula1+2011+Ro01+Australia+Free+Practice+3+XviD","amp;tr":["udp%3A%2F%2Ftracker.openbittorrent.com%3A80","udp%3A%2F%2Fopen.demonii.com%3A1337","udp%3A%2F%2Ftracker.coppersurfer.tk%3A6969","udp%3A%2F%2Fexodus.desync.com%3A6969"],"infoHash":"2260e44061104138af2a82c9100811c9e9910eaf","infoHashBuffer":{"type":"Buffer","data":[34,96,228,64,97,16,65,56,175,42,130,201,16,8,17,201,233,145,14,175]},"announce":[],"urlList":[]}}